<?xml version="1.0" encoding="UTF-8" standalone="no"?>
<svg
   version="1.0"
   width="259.000000pt"
   height="95.000000pt"
   viewBox="0 0 259.000000 95.000000"
   preserveAspectRatio="xMidYMid meet"
   id="svg8"
   sodipodi:docname="color.svg"
   inkscape:version="1.3.2 (091e20e, 2023-11-25, custom)"
   xmlns:inkscape="http://www.inkscape.org/namespaces/inkscape"
   xmlns:sodipodi="http://sodipodi.sourceforge.net/DTD/sodipodi-0.dtd"
   xmlns="http://www.w3.org/2000/svg"
   xmlns:svg="http://www.w3.org/2000/svg">
  <defs
     id="defs8" />
  <sodipodi:namedview
     id="namedview8"
     pagecolor="#ffffff"
     bordercolor="#000000"
     borderopacity="0.25"
     inkscape:showpageshadow="2"
     inkscape:pageopacity="0.0"
     inkscape:pagecheckerboard="0"
     inkscape:deskcolor="#d1d1d1"
     inkscape:document-units="pt"
     inkscape:zoom="2.4584942"
     inkscape:cx="172.66667"
     inkscape:cy="63.250098"
     inkscape:window-width="1366"
     inkscape:window-height="705"
     inkscape:window-x="-8"
     inkscape:window-y="-8"
     inkscape:window-maximized="1"
     inkscape:current-layer="svg8" />
  <metadata
     id="metadata1">
Created by potrace 1.10, written by Peter Selinger 2001-2011
</metadata>
  <g
     transform="translate(0.000000,95.000000) scale(0.100000,-0.100000)"
     fill="#000000"
     stroke="none"
     id="g8">
    <path
       d="M990 876 c-32 -22 -47 -41 -101 -133 l-19 -33 -111 0 c-110 0 -111 0 -139 -30 -25 -26 -29 -28 -41 -14 -30 36 -66 44 -199 44 -144 0 -187 -11 -217 -57 -18 -26 -50 -153 -79 -307 l-18 -98 27 -24 c39 -33 120 -34 169 0 l34 23 28 -23 c37 -33 131 -34 170 -3 l26 20 26 -20 c37 -29 131 -29 167 -1 31 25 33 25 64 0 19 -15 41 -20 83 -20 49 0 61 4 84 27 24 23 26 32 20 66 -4 28 -3 37 5 33 6 -4 11 -26 11 -49 0 -47 27 -99 62 -119 16 -9 83 -14 227 -16 221 -4 301 2 282 21 -7 7 -92 13 -250 17 -221 5 -241 7 -261 25 -19 17 -22 27 -17 74 6 52 4 56 -33 98 -51 58 -83 152 -82 243 1 107 55 210 137 261 l30 19 -25 0 c-14 0 -41 -11 -60 -24z m-446 -225 c17 -18 17 -24 3 -83 -9 -35 -18 -79 -22 -98 -3 -19 -15 -79 -27 -132 l-21 -98 -72 0 -73 0 14 67 c8 36 13 67 12 68 -2 1 -22 0 -45 -3 l-41 -4 -12 -64 -12 -64 -75 0 c-73 0 -75 1 -70 22 12 47 65 294 71 330 4 23 17 45 33 58 23 18 40 20 173 20 133 0 149 -2 164 -19z m338 -22 c-6 -58 16 -156 45 -206 l25 -43 -22 0 c-20 0 -22 -4 -16 -32 4 -18 9 -50 13 -70 l6 -38 -75 0 -75 0 -9 67 c-8 57 -12 68 -28 68 -20 0 -26 -15 -40 -98 l-7 -37 -76 0 c-68 0 -74 2 -68 18 6 15 49 211 77 355 l12 57 121 0 121 0 -4 -41z"
       id="path1" />
    <path
       d="M324 605 c-1 -5 -10 -41 -19 -80 -9 -38 -18 -76 -20 -82 -3 -9 10 -13 44 -13 l48 0 11 65 c7 36 15 77 18 93 6 27 5 28 -36 28 -24 -1 -44 -5 -46 -11z"
       id="path2" />
    <path
       d="M760 550 c-6 -36 -13 -77 -16 -92 -5 -27 -4 -28 39 -28 l44 0 7 63 c4 34 9 76 12 92 5 30 4 30 -35 30 l-40 0 -11 -65z"
       id="path3" />
    <path
       d="M1033 838 c-60 -63 -78 -113 -78 -213 0 -77 4 -98 27 -146 54 -114 198 -206 405 -259 65 -16 135 -32 156 -35 21 -3 35 -10 32 -16 -4 -5 3 -9 14 -9 30 0 26 17 -6 25 -38 9 -128 47 -252 107 -87 42 -117 63 -181 127 -66 66 -79 84 -94 138 -25 82 -18 146 25 232 34 69 24 80 -17 17 -65 -99 -70 -201 -15 -308 18 -36 43 -77 57 -91 14 -15 21 -27 16 -27 -18 0 -101 99 -107 127 -4 15 -11 41 -16 57 -21 66 -1 166 47 236 51 74 43 97 -13 38z"
       id="path4" />
    <path
       d="M1102 768 c-28 -73 -34 -104 -26 -144 8 -42 24 -45 24 -4 0 44 23 93 55 118 26 21 38 22 221 22 181 0 195 -1 214 -20 22 -22 23 -33 14 -104 l-7 -46 -102 0 -103 0 14 38 c20 56 19 58 -44 57 l-58 0 -33 -148 c-18 -82 -31 -149 -30 -151 28 -21 101 -67 104 -64 2 1 5 14 7 28 3 23 0 25 -32 25 -31 0 -35 3 -32 25 5 50 4 50 142 50 98 0 130 -3 129 -12 0 -20 -35 -171 -43 -190 -6 -14 3 -20 56 -36 35 -11 65 -16 66 -11 4 11 82 12 82 2 -1 -5 -14 -33 -30 -63 -36 -67 -37 -75 -5 -96 20 -13 29 -14 58 -3 26 9 42 9 67 0 18 -6 71 -11 118 -11 73 0 89 3 108 21 l22 21 31 -23 31 -23 28 21 27 20 28 -21 c40 -29 125 -29 164 0 26 20 28 26 28 90 0 60 3 72 24 89 19 17 30 51 61 195 54 252 52 234 29 259 -16 17 -31 21 -84 21 -68 0 -88 -11 -107 -59 l-10 -26 -12 26 c-22 53 -34 59 -106 59 -64 0 -70 -2 -94 -31 -14 -17 -26 -36 -26 -42 0 -6 -11 5 -25 24 -13 20 -31 39 -40 43 -9 3 -80 6 -158 6 -106 0 -149 -4 -171 -15 -36 -19 -36 -19 -36 10 0 14 -13 39 -29 57 l-29 33 -190 3 c-155 3 -197 0 -227 -13 -21 -8 -40 -14 -42 -12 -2 3 1 16 6 31 6 14 7 26 2 26 -5 0 -18 -24 -29 -52z m913 -115 c19 -18 18 -21 -20 -198 -13 -60 -27 -125 -30 -142 -4 -18 -18 -42 -32 -53 -23 -18 -41 -20 -174 -20 -197 0 -189 -11 -144 207 35 169 44 196 73 212 9 6 83 11 164 11 123 0 149 -3 163 -17z m249 0 c2 -10 10 -69 17 -130 13 -115 22 -139 32 -80 3 17 13 76 22 130 l17 97 74 0 c53 0 74 -4 74 -12 0 -7 -9 -47 -19 -89 -10 -41 -29 -132 -42 -202 l-24 -127 -75 0 -76 0 -12 93 c-7 50 -12 106 -12 124 0 17 -4 34 -9 37 -11 7 -14 -6 -37 -146 l-18 -108 -76 0 -77 0 18 83 c10 45 31 142 45 215 l27 132 73 0 c61 0 73 -3 78 -17z m-890 -19 c3 -9 6 -24 6 -34 0 -31 32 -40 135 -40 l95 0 -6 -27 c-16 -64 -23 -74 -43 -63 -11 5 -74 10 -140 10 l-121 0 0 28 c0 25 15 101 25 130 6 17 42 15 49 -4z m626 -383 c0 -16 -7 -35 -16 -42 -9 -7 -20 -25 -26 -39 l-10 -25 -14 33 c-13 32 -12 34 19 67 40 42 47 43 47 6z m233 0 c3 -12 -1 -22 -11 -26 -21 -8 -24 -2 -16 29 7 28 19 27 27 -3z m-331 -111 l3 -45 45 0 45 0 -2 48 c-3 41 0 47 17 47 17 0 20 -7 20 -53 0 -29 -5 -58 -12 -65 -7 -7 -38 -12 -70 -12 -67 0 -78 12 -78 83 0 76 27 74 32 -3z m-69 -15 c31 -58 33 -65 16 -65 -11 0 -19 4 -19 9 0 15 -92 18 -97 4 -3 -7 -16 -13 -29 -13 l-24 0 23 38 c13 20 31 49 41 65 27 45 50 35 89 -38z m365 53 c-3 -7 -17 -14 -31 -16 -25 -3 -27 -7 -27 -53 0 -42 -3 -49 -20 -49 -17 0 -20 7 -20 53 0 51 -1 53 -27 52 -14 0 -28 6 -30 13 -4 9 16 12 77 12 61 0 81 -3 78 -12z m160 0 c7 -7 12 -30 12 -53 0 -23 -5 -46 -12 -53 -12 -12 -104 -17 -132 -6 -20 8 -23 110 -3 117 25 11 123 7 135 -5z"
       id="path5" />
    <path
       d="M1829 613 l-36 -4 -13 -70 c-6 -39 -21 -105 -31 -147 -10 -43 -19 -82 -19 -88 0 -14 83 -10 88 5 2 6 16 70 31 143 15 73 30 139 32 147 5 16 -4 19 -52 14z m6 -61 c-1 -15 -5 -36 -8 -47 -4 -11 -9 -36 -12 -55 -8 -49 -25 -100 -34 -100 -8 0 32 200 43 219 11 17 14 13 11 -17z"
       id="path6" />
    <path
       d="M1762 140 c-17 -28 -16 -30 17 -30 27 0 28 1 18 25 -14 30 -19 31 -35 5z"
       id="path7" />
    <path
       d="M2242 128 c3 -32 4 -33 48 -33 43 0 45 1 45 30 0 29 -2 30 -48 33 l-48 3 3 -33z"
       id="path8" />
  </g>
  <path
     style="fill:#000000;stroke-width:0.406753"
     d="m 161.0742,107.38657 c -13.10876,-0.37552 -19.39059,-0.95325 -21.76128,-2.00138 -2.69246,-1.19037 -5.85928,-5.2545 -7.32834,-9.404801 -0.35375,-0.99938 -0.83074,-3.830487 -1.05999,-6.291343 -0.45133,-4.84488 -0.95757,-6.416761 -2.13991,-6.644457 -0.71988,-0.138638 -0.74459,0.09981 -0.46842,4.519791 0.34025,5.445471 0.15302,6.016849 -2.91057,8.882481 -3.10367,2.903123 -4.69276,3.33158 -11.59193,3.125495 -6.50827,-0.194412 -7.48737,-0.47351 -11.02141,-3.14174 -2.851757,-2.153095 -3.946012,-2.148694 -6.985852,0.02809 -6.818849,4.882864 -18.054177,4.570814 -24.461376,-0.6794 -0.948137,-0.776931 -1.857267,-1.412596 -2.020289,-1.412596 -0.163027,0 -1.061931,0.62729 -1.997573,1.393975 -3.777438,3.095326 -8.703018,4.551545 -14.042611,4.151631 -5.264373,-0.394286 -7.373085,-1.296826 -12.38591,-5.301225 l -1.476224,-1.179254 -2.738901,1.87141 c -5.732319,3.916718 -10.59488,5.224213 -16.303894,4.383984 -3.744371,-0.551085 -6.46028,-1.841656 -9.277226,-4.40843 L 8.9855145,93.349823 9.996417,88.062034 c 5.435139,-28.429911 9.31013,-44.102689 11.966964,-48.401535 2.104149,-3.404586 5.825474,-5.478697 11.797122,-6.575225 3.188517,-0.585483 6.211101,-0.706405 17.287004,-0.691588 17.661888,0.02363 21.097137,0.687692 25.122325,4.856362 2.398439,2.483937 3.200398,2.394876 6.210391,-0.68969 4.155324,-4.258271 3.839736,-4.189629 20.028247,-4.356244 l 13.93968,-0.14347 0.62358,-1.205861 c 3.02082,-5.841626 9.11503,-15.088914 11.70561,-17.761958 3.50678,-3.6184132 8.82679,-6.3577015 11.85667,-6.105035 l 1.56357,0.1303882 -3.01935,2.001789 C 126.25721,17.620157 119.2788,33.568098 121.18932,50.001891 c 1.2484,10.738305 4.81047,19.606022 10.67882,26.584728 4.56509,5.428856 4.62462,5.564105 4.41241,10.024962 -0.41795,8.785931 -0.32779,9.91644 0.92146,11.554292 1.52325,1.997077 3.54605,2.960787 7.3149,3.484987 1.72044,0.2393 12.32721,0.7108 23.5706,1.0478 27.78332,0.83273 37.54938,1.49402 38.6741,2.61874 0.56393,0.56393 -0.99468,1.20209 -4.06475,1.66428 -3.82514,0.57586 -27.58565,0.807 -41.62266,0.40489 z M 34.574681,87.756969 c 0.721621,-3.85907 1.436501,-7.657126 1.588622,-8.440126 0.314335,-1.617945 0.509708,-1.674891 7.692235,-2.242112 l 3.790364,-0.299329 -0.276721,1.575785 c -0.152196,0.866681 -0.966875,4.916245 -1.810397,8.999029 l -1.533675,7.423243 h 9.91756 c 5.454656,0 9.917559,-0.07537 9.917559,-0.167489 0,-0.09212 0.927466,-4.43929 2.061034,-9.660384 1.133572,-5.221095 2.789577,-13.152401 3.680012,-17.625126 0.89044,-4.472726 2.342479,-11.261727 3.226756,-15.086666 0.884277,-3.824943 1.607777,-7.673304 1.607777,-8.551914 0,-2.074105 -1.636286,-4.50902 -3.574249,-5.318753 -4.400677,-1.83872 -36.452496,-1.764511 -41.10027,0.09516 -2.074048,0.829869 -5.061953,4.048928 -5.938262,6.397665 -0.352391,0.944499 -1.4714,5.835646 -2.486687,10.869215 -1.015287,5.033569 -3.211166,15.320609 -4.879732,22.86009 -1.668566,7.539481 -3.033757,14.089019 -3.033757,14.554527 0,0.497565 0.377178,0.997989 0.915195,1.214248 0.503357,0.202323 4.96731,0.379463 9.919896,0.393643 l 9.004702,0.02578 z m 60.14725,-0.01119 c 1.505768,-8.009927 2.340958,-10.307195 3.888458,-10.695595 2.533321,-0.635825 3.214181,0.862296 4.528581,9.964428 0.53546,3.708079 0.97722,6.970759 0.98169,7.250402 0.006,0.392976 2.31738,0.508441 10.17695,0.508441 9.78292,0 10.16882,-0.02986 10.16882,-0.786872 0,-0.432777 -0.6607,-4.401658 -1.46822,-8.819736 -1.68193,-9.202112 -1.70296,-9.104032 1.95272,-9.104032 1.07581,0 1.95602,-0.12543 1.95602,-0.278732 0,-0.153305 -1.04419,-2.106919 -2.32043,-4.341368 -5.17667,-9.063386 -7.77435,-21.805506 -6.50141,-31.890618 l 0.32147,-2.546839 -16.37267,0.106321 -16.372667,0.10632 -1.541842,7.524932 c -3.969169,19.371434 -5.848556,28.194351 -7.927861,37.217903 -2.987963,12.966852 -2.843952,11.91821 -1.699658,12.376417 0.528445,0.211605 4.999137,0.39634 9.93487,0.41052 l 8.974062,0.02578 z"
     id="path9"
     transform="scale(0.75)" />
  <path
     style="fill:#c1c1c1;stroke-width:0.406753;fill-opacity:1"
     d="m 161.0742,107.38657 c -13.10876,-0.37552 -19.39059,-0.95325 -21.76128,-2.00138 -2.69246,-1.19037 -5.85928,-5.2545 -7.32834,-9.404801 -0.35375,-0.99938 -0.83074,-3.830487 -1.05999,-6.291343 -0.45045,-4.835399 -0.9578,-6.416806 -2.13116,-6.642773 -0.7085,-0.136446 -0.7347,0.119739 -0.46071,4.504879 0.33927,5.429754 0.14404,6.023085 -2.92703,8.895709 -3.09989,2.899584 -4.69304,3.330177 -11.59193,3.13304 -6.41094,-0.183193 -7.50389,-0.504923 -11.45809,-3.372898 -2.57155,-1.865137 -3.650975,-1.823649 -6.549172,0.251699 -6.818849,4.882868 -18.054177,4.570818 -24.461376,-0.6794 -0.948137,-0.776931 -1.857267,-1.412596 -2.020289,-1.412596 -0.163027,0 -1.047414,0.60149 -1.965313,1.336647 -2.409292,1.929633 -3.450596,2.523513 -5.736434,3.271617 -4.543789,1.48709 -11.092473,1.24517 -15.185936,-0.56099 -0.969697,-0.427859 -2.948554,-1.721232 -4.397459,-2.874162 l -2.634374,-2.096234 -2.730302,1.865532 C 30.951749,99.219652 26.085724,100.52702 20.37972,99.687227 16.609698,99.132363 13.898522,97.84754 11.097669,95.288465 L 8.975864,93.349823 9.9915917,88.062034 C 15.534095,59.20825 19.305313,43.961343 21.963381,39.660499 c 2.104149,-3.404586 5.825474,-5.478697 11.797122,-6.575225 3.188517,-0.585483 6.211101,-0.706405 17.287004,-0.691588 17.659846,0.02362 20.764576,0.619306 25.155296,4.826357 1.049435,1.005537 2.288726,1.828249 2.753978,1.828249 0.4886,0 1.996426,-1.110727 3.569673,-2.629568 4.302398,-4.153617 3.728026,-4.031813 19.836256,-4.206576 l 13.89392,-0.150739 2.73682,-4.743308 c 5.70276,-9.883727 9.22796,-14.508271 13.13139,-17.226437 2.65768,-1.8506833 6.38997,-3.2398711 8.31901,-3.0964035 l 1.65273,0.1229177 -2.9624,1.965403 c -6.03895,4.0065418 -10.27325,8.9319858 -13.65205,15.8803728 -5.38059,11.065014 -6.03891,23.235981 -1.95925,36.222312 1.9855,6.320214 4.46532,10.569852 10.69853,18.333954 2.3208,2.890802 2.5321,3.962913 1.98165,10.054797 -0.41962,4.643948 -0.39515,5.363177 0.23893,7.023486 0.72742,1.904739 2.36391,3.464897 4.47718,4.268357 2.34101,0.89005 7.59726,1.24325 27.27321,1.83263 32.52538,0.97427 41.22227,1.75536 38.10724,3.42247 -0.45376,0.24285 -2.075,0.62972 -3.60276,0.85972 -3.82514,0.57586 -27.58565,0.807 -41.62266,0.40489 z M 34.368738,88.773852 c 0.612012,-3.299784 1.328445,-7.097841 1.592072,-8.440126 l 0.479323,-2.440518 1.812521,-0.25957 c 0.996886,-0.142766 3.518184,-0.394274 5.602884,-0.558907 l 3.790364,-0.299329 -0.276721,1.575785 c -0.152196,0.866681 -0.966875,4.916245 -1.810397,8.999029 l -1.533675,7.423243 h 9.91756 c 5.454656,0 9.917559,-0.06863 9.917559,-0.152512 0,-0.08388 1.020344,-4.888651 2.267432,-10.677267 1.247089,-5.788617 2.901508,-13.719797 3.676491,-17.62485 0.774978,-3.905053 2.134139,-10.236457 3.020352,-14.069787 1.899529,-8.216411 1.974815,-9.62968 0.619258,-11.624561 -1.480228,-2.178352 -3.231592,-2.812719 -8.903942,-3.225119 -6.426996,-0.467266 -20.967293,-0.457766 -27.867995,0.01821 -6.235898,0.430119 -8.053023,1.080098 -10.456224,3.740154 -2.070685,2.292001 -2.789779,4.158213 -4.045855,10.499912 -1.447027,7.305781 -4.253538,20.496795 -6.731284,31.638029 -1.108586,4.984779 -2.015611,9.429369 -2.015611,9.876867 0,0.463605 0.393722,0.971892 0.915195,1.1815 0.503357,0.202323 4.965813,0.379463 9.916569,0.393643 l 9.001374,0.02578 z m 60.339925,-1.016883 c 1.508891,-7.99997 2.353709,-10.318255 3.901726,-10.706781 2.531481,-0.635361 3.207741,0.850439 4.533601,9.96067 0.53996,3.710145 0.98243,6.974517 0.98327,7.25416 10e-4,0.393155 2.30726,0.508441 10.17035,0.508441 9.78292,0 10.16882,-0.02986 10.16882,-0.786872 0,-0.432777 -0.6607,-4.401658 -1.46822,-8.819736 -1.68193,-9.202112 -1.70296,-9.104032 1.95272,-9.104032 1.07581,0 1.95602,-0.1031 1.95602,-0.229112 0,-0.126008 -1.09175,-2.185195 -2.42612,-4.575972 -5.19484,-9.307559 -7.73848,-22.032071 -6.37864,-31.909018 l 0.32264,-2.34347 -16.38179,0.106328 -16.381797,0.106328 -1.542188,7.524932 c -4.105696,20.033266 -6.275894,30.22269 -8.143452,38.234786 -2.737005,11.742143 -2.627222,10.901644 -1.483721,11.359534 0.528445,0.211605 4.995639,0.39634 9.927097,0.41052 l 8.966293,0.02578 z"
     id="path10"
     transform="scale(0.75)" />
  <path
     style="fill:#c1c1c1;fill-opacity:1;stroke-width:0.406753"
     d="M 99.839585,68.574814 C 99.008913,67.967412 99.03205,67.786818 102.59318,47.081665 l 0.40226,-2.33883 h 3.56647 c 1.96156,0 4.15391,0.117486 4.87188,0.26108 1.29215,0.25843 1.30381,0.282177 1.14865,2.33883 -0.0862,1.142762 -0.68807,6.516442 -1.33747,11.941511 l -1.18073,9.863761 h -4.72038 c -3.41872,0 -4.93654,-0.158062 -5.504275,-0.573203 z"
     id="path11"
     transform="scale(0.75)" />
  <path
     style="fill:#c1c1c1;fill-opacity:1;stroke-width:0.406753"
     d="m 39.455045,68.774899 c -1.376285,-0.395242 -1.332285,-0.758476 1.527938,-12.61362 1.97117,-8.170169 2.553099,-10.039589 3.274267,-10.518426 0.973686,-0.646503 7.101324,-1.165357 8.781773,-0.743591 1.268145,0.318284 1.350301,1.24558 0.4793,5.409835 -0.318907,1.524696 -1.148801,5.975355 -1.844208,9.890353 -0.695408,3.914998 -1.353165,7.530016 -1.461684,8.033373 -0.191611,0.888779 -0.33503,0.914024 -4.968904,0.874649 -2.62438,-0.0223 -5.229196,-0.171958 -5.788482,-0.332573 z"
     id="path12"
     transform="scale(0.75)" />
  <path
     style="fill:#b3b3b3;fill-opacity:1;stroke-width:0.406753"
     d="m 154.18856,106.96853 c -12.6918,-0.64985 -15.30838,-1.30694 -18.13609,-4.55442 -2.70309,-3.104362 -4.15017,-6.796207 -4.87392,-12.434472 -0.71103,-5.539215 -1.19218,-7.002017 -2.30313,-7.002017 -0.68326,0 -0.74821,0.407814 -0.74821,4.697859 0,5.479765 -0.24635,6.146958 -3.27503,8.870003 -2.77703,2.496788 -4.18255,2.821328 -11.36397,2.623968 -6.3761,-0.17523 -6.74813,-0.28199 -10.98644,-3.152731 -2.50007,-1.693374 -3.978902,-1.627004 -7.074228,0.317507 -1.366458,0.85842 -3.399666,1.880733 -4.518237,2.271802 -2.666722,0.932326 -8.338836,1.275719 -11.212143,0.678789 -2.712189,-0.563459 -6.606923,-2.349389 -8.370722,-3.838394 -0.703435,-0.593843 -1.580724,-1.079718 -1.949527,-1.079718 -0.368807,0 -1.657665,0.745277 -2.864135,1.656172 -3.046548,2.300164 -5.836849,3.279471 -10.062008,3.53145 -6.178905,0.368494 -9.69187,-0.709743 -14.45918,-4.437968 l -2.547868,-1.992537 -2.333168,1.582017 c -6.740083,4.570139 -12.510513,5.90815 -18.61952,4.317375 -2.779428,-0.72376 -4.914451,-1.908599 -7.467683,-4.144228 L 9.2339819,93.312203 10.33779,87.433096 c 4.362258,-23.234299 8.860094,-41.609778 11.454044,-46.794408 1.727251,-3.452323 5.454111,-5.864869 11.018985,-7.13303 3.699601,-0.84309 23.115922,-1.234271 30.51655,-0.614817 6.459299,0.540662 8.984333,1.394126 12.285492,4.152509 1.445673,1.207974 2.797037,2.004942 3.39965,2.004942 0.652082,0 1.905442,-0.82829 3.60122,-2.379889 4.399242,-4.025213 3.453183,-3.82287 19.651529,-4.203066 7.81177,-0.183352 14.23268,-0.378785 14.2687,-0.434295 0.036,-0.05551 1.63288,-2.75842 3.54859,-6.006465 4.1651,-7.061836 7.57779,-11.758283 10.30674,-14.183851 2.44864,-2.1764191 6.49722,-4.1508535 9.05804,-4.4174799 l 1.89935,-0.1977556 -2.44052,1.7238511 c -4.09852,2.8949764 -6.49847,5.1209364 -8.86301,8.2204824 -8.92432,11.698358 -11.53108,26.997747 -7.21857,42.366619 1.76711,6.297582 4.29091,11.097366 9.27139,17.632399 4.26248,5.592923 4.27393,5.628681 3.93533,12.299121 -0.19871,3.914539 -0.13907,6.014654 0.19997,7.041969 0.61539,1.864621 3.18381,4.196688 5.22838,4.747228 2.17615,0.58598 11.26823,1.14058 26.93611,1.64305 25.37169,0.81368 36.14449,1.5126 37.82004,2.45369 0.72768,0.40872 0.52667,0.51075 -2.43253,1.23481 -2.319,0.56742 -40.25651,0.85796 -49.59471,0.37982 z M 35.040434,86.493578 c 0.834912,-4.442081 1.606055,-8.164538 1.713651,-8.272137 0.198643,-0.198642 4.408913,-0.731952 8.293814,-1.050566 1.863434,-0.152825 2.135454,-0.08012 2.135454,0.57076 0,0.410243 -0.732156,4.253299 -1.627012,8.540122 -0.894857,4.286823 -1.627012,7.95116 -1.627012,8.142964 0,0.191805 4.543664,0.348738 10.09703,0.348738 h 10.097034 l 0.452427,-2.33883 c 0.783443,-4.050028 7.312814,-35.030666 8.614822,-40.875691 1.587212,-7.12539 1.625967,-9.555152 0.17983,-11.273788 -0.585932,-0.696342 -1.566081,-1.525024 -2.178106,-1.841515 -1.997633,-1.033015 -7.704927,-1.429165 -20.540943,-1.425771 -18.927415,0.005 -21.881583,0.541475 -25.049253,4.548879 -1.957896,2.476924 -2.298663,3.610463 -5.051141,16.802319 -1.213626,5.816568 -3.31395,15.665446 -4.667386,21.886401 -1.353436,6.22095 -2.460793,11.812787 -2.460793,12.426305 0,2.068445 0.243216,2.11451 10.545038,1.997157 l 9.554525,-0.108843 z m 58.523862,8.178193 c 0.264329,-2.422475 2.949541,-14.080452 3.560159,-15.456616 0.750459,-1.691324 1.010887,-1.932077 2.08997,-1.932077 0.957095,0 1.373165,0.271662 1.861045,1.215114 0.5932,1.147117 1.80147,7.576202 2.52365,13.427996 l 0.32628,2.643894 10.27052,0.108673 10.27051,0.108672 v -1.264339 c 0,-0.695389 -0.55868,-4.459555 -1.24151,-8.364815 -0.68284,-3.905261 -1.1328,-7.443028 -0.99991,-7.861703 0.22878,-0.720831 2.85593,-1.533862 4.1735,-1.291583 0.86064,0.158259 0.58514,-0.666209 -1.53971,-4.607808 -4.07721,-7.563191 -6.37648,-15.819053 -6.7436,-24.213826 -0.12229,-2.796427 -0.0549,-6.228406 0.14985,-7.62662 l 0.3722,-2.542206 h -16.60956 c -9.135252,0 -16.609551,0.07787 -16.609551,0.173052 0,0.316472 -6.446572,31.26018 -7.675267,36.841475 -0.664871,3.020141 -1.863991,8.357896 -2.664713,11.861679 -1.575257,6.892971 -1.729762,8.297656 -0.947417,8.613342 0.501014,0.202164 19.411988,0.365349 19.433554,0.167696 z"
     id="path13"
     transform="scale(0.75)" />
  <path
     style="fill:#0000ff;fill-opacity:1;stroke-width:0.406753"
     d="m 299.50585,122.63617 c -2.94227,-0.63968 -3.56921,-0.94007 -6.95132,-3.33062 -1.51592,-1.07149 -2.74932,-1.67756 -3.05065,-1.49903 -0.27821,0.16483 -1.93208,1.37874 -3.67526,2.69758 l -3.16942,2.39789 -4.10419,-3.06743 -4.10418,-3.06744 -2.45613,2.22267 c -1.35087,1.22247 -3.11132,2.42603 -3.9121,2.67458 -2.20566,0.6846 -13.95047,0.92343 -19.37297,0.39395 -2.63409,-0.25721 -6.25062,-0.84645 -8.03674,-1.30943 -3.59711,-0.93242 -4.91261,-0.85456 -9.30688,0.55085 -2.37746,0.76038 -2.93044,0.80711 -4.38699,0.37072 -0.93519,-0.28019 -2.4809,-1.27954 -3.52198,-2.27707 -1.69186,-1.62109 -1.82998,-1.89702 -1.56756,-3.13169 0.15828,-0.74468 1.94207,-4.67452 3.96399,-8.73299 2.1015,-4.21818 3.57334,-7.647112 3.43605,-8.004892 -0.51063,-1.330693 -8.71472,-1.384539 -10.72041,-0.07036 -0.73388,0.480855 -1.34004,0.509698 -3.26746,0.155477 -4.99651,-0.918257 -13.14539,-3.917101 -13.14539,-4.837591 0,-0.215787 0.43694,-1.905179 0.97097,-3.754201 1.22522,-4.242125 3.8337,-15.78406 4.50908,-19.951639 0.49759,-3.070449 0.48699,-3.181024 -0.34796,-3.629453 -1.29847,-0.697383 -18.40481,-1.237128 -25.82822,-0.814938 -7.47243,0.424975 -8.75474,0.869646 -9.34744,3.241443 -1.47226,5.891419 -0.87533,7.013773 3.73026,7.013773 4.01957,0 4.51057,0.39281 4.1453,3.316339 -0.42857,3.430116 -0.56211,3.508965 -3.31198,1.955543 -1.71902,-0.971091 -9.53953,-5.988894 -10.99205,-7.052728 -0.22986,-0.168351 7.29436,-35.695151 8.26767,-39.037114 0.20399,-0.700422 0.67895,-0.742862 6.82804,-0.61013 7.07317,0.15268 7.95348,0.397044 7.95348,2.207802 0,0.52176 -0.73215,3.00112 -1.62701,5.509689 -0.89486,2.508569 -1.62701,4.621807 -1.62701,4.696084 0,0.07428 6.20878,0.135049 13.79728,0.135049 h 13.79729 l 0.23091,-1.118571 c 0.50944,-2.467877 1.46074,-10.850151 1.46074,-12.871266 0,-2.736215 -1.32167,-5.335312 -3.48969,-6.862591 -2.38146,-1.677638 -5.88902,-1.919568 -27.8303,-1.919568 -20.66164,0 -24.98356,0.255824 -27.69552,1.639363 -4.93036,2.515281 -9.2769,10.475136 -9.31855,17.065103 -0.0136,2.157502 -0.36307,3.660777 -0.85096,3.660777 -0.65553,0 -1.56845,-2.356616 -2.05558,-5.306314 -0.62198,-3.766237 -0.0735,-7.266869 2.15759,-13.771264 1.60898,-4.690675 4.2347,-10.459489 4.96659,-10.911827 0.43657,-0.26981 0.16914,1.415517 -0.75402,4.751881 -0.38862,1.404508 -0.47172,2.360381 -0.22652,2.605585 0.2452,0.245204 2.03636,-0.159788 4.88247,-1.103956 6.37567,-2.115066 10.45392,-2.366965 33.77554,-2.086189 10.62642,0.127934 20.07619,0.323878 20.99948,0.435429 1.49055,0.180086 1.96927,0.543233 4.27091,3.23976 3.22196,3.774754 4.80882,6.736072 4.82054,8.995842 0.0106,2.03455 0.32841,2.982227 1.00026,2.982227 0.27372,0 1.39813,-0.464503 2.49869,-1.032229 1.10055,-0.567726 3.00772,-1.306546 4.23815,-1.641822 3.5845,-0.97673 17.08503,-1.442922 29.60945,-1.022454 12.66121,0.425059 12.01496,0.244467 15.04739,4.204915 2.41022,3.147819 4.56943,5.592886 4.93903,5.592886 0.15624,0 0.60887,-0.686396 1.00584,-1.525324 0.98448,-2.080555 3.78465,-5.664411 5.37137,-6.87466 1.83033,-1.396061 7.45495,-1.988049 13.60008,-1.4314 6.24364,0.565573 7.02856,1.11264 9.77959,6.816109 1.13983,2.363107 2.16755,4.201431 2.28382,4.085164 0.11626,-0.116267 0.8022,-1.570469 1.52431,-3.231561 1.76609,-4.062625 2.74235,-5.335085 4.89138,-6.375408 3.62789,-1.756235 14.81062,-1.914433 18.01977,-0.25492 0.64269,0.332351 1.86496,1.375137 2.71615,2.317303 1.54313,1.708052 1.54689,1.720861 1.29704,4.409252 -0.3892,4.187548 -5.99248,31.020579 -8.79773,42.130619 -2.09015,8.277905 -2.98096,10.462213 -5.32016,13.045242 -1.14661,1.266124 -2.12761,2.814442 -2.35367,3.714804 -0.21319,0.84911 -0.4835,4.56398 -0.60068,8.25526 -0.11718,3.69129 -0.42087,7.26054 -0.67487,7.93169 -1.9442,5.13716 -10.6114,7.92235 -18.98695,6.10142 z m -68.49942,-5.25985 c 1.09421,-1.04832 1.58256,-1.19876 4.42563,-1.36334 4.05596,-0.2348 7.22861,0.42196 8.4607,1.7514 0.69735,0.75245 1.35053,1.00751 2.58016,1.00751 1.48664,0 1.64644,-0.0991 1.64644,-1.02062 0,-1.25624 -4.16055,-9.4154 -6.50654,-12.75985 -0.94886,-1.35268 -2.1546,-2.74079 -2.67943,-3.08467 -1.5315,-1.00348 -3.51637,-0.79658 -4.73272,0.49333 -0.88079,0.93405 -5.94295,8.73776 -9.66159,14.8941 l -0.95012,1.57295 3.09377,-0.15623 c 2.75046,-0.13889 3.23025,-0.28699 4.3237,-1.33458 z m 36.70932,0.61997 c 2.32852,-0.72638 2.9784,-2.87317 2.9784,-9.83872 0,-6.31098 -0.21728,-6.87606 -2.64389,-6.87606 -2.38007,0 -2.55168,0.47917 -2.47713,6.91656 l 0.0659,5.69278 h -5.67449 -5.6745 l -0.24556,-3.15233 c -0.565,-7.25302 -1.37294,-10.33025 -2.78358,-10.60191 -1.30897,-0.252088 -1.95524,2.29432 -1.9514,7.68882 0.007,9.92585 1.20227,11.07638 11.2158,10.7966 3.132,-0.0875 6.36769,-0.36909 7.19043,-0.62574 z m 17.0424,0.12809 c 0.35269,-0.42497 0.61705,-2.44956 0.76919,-5.89095 0.17259,-3.90412 0.38927,-5.40092 0.84829,-5.85995 0.33907,-0.33907 1.70846,-0.89934 3.04309,-1.24505 3.86706,-1.00168 5.10145,-3.00688 2.20733,-3.58571 -1.72668,-0.34533 -16.98534,-0.25962 -18.28801,0.10273 -2.6252,0.73024 0.10529,3.29492 3.50929,3.2962 2.54478,9.6e-4 2.76486,0.5085 2.99876,6.91544 0.14125,3.86893 0.37392,5.77609 0.76162,6.2428 0.72853,0.87697 3.42972,0.89291 4.15044,0.0245 z m 28.23284,-0.21159 c 2.23713,-0.77885 2.78581,-2.08952 2.9608,-7.07259 0.28962,-8.24717 -0.65634,-9.15862 -9.82642,-9.46783 -7.15507,-0.24127 -10.05984,0.257 -10.83207,1.85809 -0.7321,1.51788 -0.99383,8.39726 -0.42393,11.14248 0.58533,2.81951 1.12097,3.56159 2.89373,4.00901 2.13879,0.53981 13.3192,0.19535 15.22789,-0.46916 z M 261.309,104.31278 c 0.78014,-1.68851 2.1563,-3.90828 3.05814,-4.932827 1.80497,-2.050556 2.45715,-3.828676 2.46059,-6.708679 0.005,-4.090675 -1.06753,-4.185534 -4.97464,-0.440022 -3.62435,3.474448 -5.19192,5.608128 -5.19192,7.066932 0,1.370066 2.54337,8.084616 3.06234,8.084616 0.0919,0 0.80535,-1.3815 1.58549,-3.07002 z m 35.84258,-8.097198 c 1.19653,-1.196521 1.24303,-2.287466 0.19585,-4.594459 -0.87328,-1.923865 -1.72613,-2.188376 -2.62294,-0.813506 -0.78485,1.203224 -1.54517,4.6697 -1.23711,5.640294 0.35973,1.133421 2.4297,1.002174 3.6642,-0.232329 z M 254.52423,93.97244 c 0.94997,-0.284593 2.51197,-1.208207 3.47111,-2.052476 2.99235,-2.633974 3.68075,-4.44483 6.18698,-16.275023 6.92309,-32.679175 6.94611,-32.824983 5.54225,-35.09648 -1.39443,-2.256231 -3.19525,-2.742604 -11.9772,-3.234861 -5.53944,-0.310503 -10.71744,-0.299613 -18.71064,0.03935 -11.62405,0.492936 -13.5873,0.750802 -15.29108,2.008427 -2.71433,2.00356 -5.01871,9.768266 -9.62461,32.430535 -3.76245,18.51225 -3.3782,21.207624 3.21785,22.572296 2.73663,0.566193 35.12676,0.224943 37.18534,-0.391768 z m 35.89744,0.549938 c 0,-1.126189 5.02711,-29.786118 5.50969,-31.411125 1.2117,-4.080233 2.16115,-2.249902 2.67785,5.162282 0.21287,3.053678 0.97704,10.219633 1.69814,15.924345 l 1.3111,10.372202 10.25548,0.108652 10.25548,0.108652 0.2161,-0.922158 c 0.11885,-0.507188 1.32301,-6.779402 2.67591,-13.938255 1.3529,-7.158854 3.82248,-19.176441 5.48795,-26.705753 1.66547,-7.529311 3.02813,-13.963525 3.02813,-14.298254 0,-1.165024 -2.55537,-1.56765 -11.38909,-1.794478 l -8.74519,-0.224555 -2.58193,15.206847 c -3.01678,17.76801 -3.27128,19.071002 -3.7249,19.071002 -0.84229,0 -1.39168,-3.14054 -3.48047,-19.895538 -0.79243,-6.356406 -1.62542,-11.902093 -1.85108,-12.32375 -0.22566,-0.421657 -0.90252,-0.965013 -1.50414,-1.207457 -1.22087,-0.492001 -18.78759,-1.013512 -18.78759,-0.557756 0,0.648423 -6.3311,31.419785 -8.96675,43.581498 -1.556,7.179915 -2.82909,13.265957 -2.82909,13.524539 0,0.343397 2.79624,0.470141 10.3722,0.470141 5.70471,0 10.3722,-0.112984 10.3722,-0.251081 z m -78.85341,-31.27228 c 0.76086,-1.313991 2.6474,-7.503111 3.04503,-9.989731 l 0.24342,-1.522266 -12.34983,-0.179921 c -16.88983,-0.246063 -17.5235,-0.467804 -18.48427,-6.46823 -0.63105,-3.941148 -1.31108,-4.820683 -3.9579,-5.119018 -2.71086,-0.305552 -3.59667,0.74722 -4.71478,5.603409 -1.46055,6.343474 -2.07313,10.487855 -2.07313,14.025539 v 3.361395 l 15.76168,0.194265 c 12.5341,0.154485 16.17814,0.321238 17.79544,0.81432 2.88491,0.879555 3.89739,0.725623 4.73434,-0.719762 z"
     id="path14"
     transform="scale(0.75)" />
  <path
     style="fill:#0000ff;fill-opacity:1;stroke-width:0.406753"
     d="m 210.29132,104.13922 c 0,-1.10184 -1.5481,-1.79078 -5.89792,-2.62469 -12.64418,-2.424022 -28.22508,-6.648055 -36.33882,-9.851577 -21.39864,-8.448752 -34.36683,-19.885912 -39.13436,-34.51415 -0.81491,-2.500397 -0.94935,-3.893758 -1.10351,-11.437178 -0.24999,-12.232814 0.77036,-17.422633 4.65415,-23.672594 2.02899,-3.265139 8.14491,-9.949505 9.96415,-10.890269 1.10551,-0.571682 1.14881,-0.55751 1.14881,0.375996 0,1.119635 -1.83408,4.701935 -4.17415,8.152894 -3.80706,5.614367 -6.36957,12.659633 -7.26088,19.96281 -0.5984,4.903192 -0.26098,7.802783 1.75037,15.041497 1.39435,5.018161 2.00463,6.539483 3.50812,8.745191 4.13543,6.066892 10.32959,12.635669 11.91508,12.635669 1.09671,0 0.96365,-0.5103 -0.65464,-2.510586 -6.65668,-8.227983 -11.90681,-19.039638 -13.19975,-27.182386 -1.2195,-7.680181 0.47828,-16.26351 4.71169,-23.820539 2.00957,-3.587281 5.17897,-8.018798 5.9116,-8.265739 0.82473,-0.277983 0.0178,2.347511 -2.16517,7.045214 -3.80423,8.186414 -5.2233,13.440028 -5.2233,19.337369 0,6.269456 2.45551,15.485809 5.322,19.975297 2.65113,4.152163 15.93505,17.106987 20.91357,20.395447 8.14683,5.381221 32.73,16.85339 44.17585,20.615444 2.14901,0.70634 4.23616,1.52473 4.63811,1.81864 1.10762,0.80992 0.36383,1.47131 -1.65461,1.47131 -1.52739,0 -1.80639,-0.12404 -1.80639,-0.80307 z"
     id="path15"
     transform="scale(0.75)" />
  <path
     style="fill:#0000ff;fill-opacity:1;stroke-width:0.406753"
     d="m 234.39144,111.59651 c -0.27964,-0.11768 -0.50844,-0.48207 -0.50844,-0.80974 0,-0.79761 2.72902,-5.03098 3.2432,-5.03098 0.7231,0 2.52812,3.1707 2.59232,4.55366 l 0.0624,1.34426 -2.44052,0.0784 c -1.34228,0.0431 -2.66932,-0.0179 -2.94896,-0.13559 z"
     id="path16"
     transform="scale(0.75)" />
  <path
     style="fill:#0000ff;fill-opacity:1;stroke-width:0.406753"
     d="m 231.74755,86.790174 c -0.3915,-0.116283 -0.71182,-0.581376 -0.71182,-1.033539 0,-0.452163 1.08683,-5.609589 2.41517,-11.460948 2.39467,-10.548502 3.2585,-14.737569 4.94078,-23.959998 0.69222,-3.794799 1.0089,-4.780036 1.53728,-4.782686 0.36601,-0.0018 2.31281,-0.194326 4.32624,-0.427758 4.30024,-0.498558 6.30467,-0.255844 6.30467,0.763422 0,0.386219 -1.4653,7.5622 -3.25622,15.946625 -5.60186,26.225806 -4.91591,23.580476 -6.30025,24.296695 -1.21619,0.629218 -7.78156,1.096085 -9.25585,0.658187 z m 6.79814,-7.596777 c 1.08935,-1.662551 2.25105,-5.617844 3.72696,-12.689275 0.79377,-3.80314 1.69512,-8.104554 2.003,-9.558696 0.62444,-2.949281 0.77654,-7.728308 0.24597,-7.728308 -1.42265,0 -2.79931,4.461623 -5.33402,17.287004 -2.4134,12.211577 -2.5878,15.659084 -0.64191,12.689275 z"
     id="path17"
     transform="scale(0.75)" />
  <path
     style="fill:#4141ff;fill-opacity:1;stroke-width:0.406753"
     d="m 301.09805,113.62541 c -1.30684,-0.28263 -1.71842,-1.31636 -2.0053,-5.03654 l -0.25256,-3.27512 2.80723,0.23609 c 1.54398,0.12985 3.96754,0.33715 5.3857,0.46066 3.37412,0.29386 4.13296,1.01698 4.13296,3.93846 0,3.38716 -0.41227,3.69109 -5.14149,3.79038 -2.20575,0.0463 -4.42269,-0.005 -4.92654,-0.11393 z"
     id="path18"
     transform="scale(0.75)" />
</svg>
