<?xml version="1.0" standalone="no"?>
<!DOCTYPE svg PUBLIC "-//W3C//DTD SVG 20010904//EN"
 "http://www.w3.org/TR/2001/REC-SVG-20010904/DTD/svg10.dtd">
<svg version="1.0" xmlns="http://www.w3.org/2000/svg"
 width="259.000000pt" height="95.000000pt" viewBox="0 0 259.000000 95.000000"
 preserveAspectRatio="xMidYMid meet">
<metadata>
Created by potrace 1.10, written by Peter Selinger 2001-2011
</metadata>
<g transform="translate(0.000000,95.000000) scale(0.100000,-0.100000)"
fill="#000000" stroke="none">
<path d="M990 876 c-32 -22 -47 -41 -101 -133 l-19 -33 -111 0 c-110 0 -111 0
-139 -30 -25 -26 -29 -28 -41 -14 -30 36 -66 44 -199 44 -144 0 -187 -11 -217
-57 -18 -26 -50 -153 -79 -307 l-18 -98 27 -24 c39 -33 120 -34 169 0 l34 23
28 -23 c37 -33 131 -34 170 -3 l26 20 26 -20 c37 -29 131 -29 167 -1 31 25 33
25 64 0 19 -15 41 -20 83 -20 49 0 61 4 84 27 24 23 26 32 20 66 -4 28 -3 37
5 33 6 -4 11 -26 11 -49 0 -47 27 -99 62 -119 16 -9 83 -14 227 -16 221 -4
301 2 282 21 -7 7 -92 13 -250 17 -221 5 -241 7 -261 25 -19 17 -22 27 -17 74
6 52 4 56 -33 98 -51 58 -83 152 -82 243 1 107 55 210 137 261 l30 19 -25 0
c-14 0 -41 -11 -60 -24z m-446 -225 c17 -18 17 -24 3 -83 -9 -35 -18 -79 -22
-98 -3 -19 -15 -79 -27 -132 l-21 -98 -72 0 -73 0 14 67 c8 36 13 67 12 68 -2
1 -22 0 -45 -3 l-41 -4 -12 -64 -12 -64 -75 0 c-73 0 -75 1 -70 22 12 47 65
294 71 330 4 23 17 45 33 58 23 18 40 20 173 20 133 0 149 -2 164 -19z m338
-22 c-6 -58 16 -156 45 -206 l25 -43 -22 0 c-20 0 -22 -4 -16 -32 4 -18 9 -50
13 -70 l6 -38 -75 0 -75 0 -9 67 c-8 57 -12 68 -28 68 -20 0 -26 -15 -40 -98
l-7 -37 -76 0 c-68 0 -74 2 -68 18 6 15 49 211 77 355 l12 57 121 0 121 0 -4
-41z"/>
<path d="M324 605 c-1 -5 -10 -41 -19 -80 -9 -38 -18 -76 -20 -82 -3 -9 10
-13 44 -13 l48 0 11 65 c7 36 15 77 18 93 6 27 5 28 -36 28 -24 -1 -44 -5 -46
-11z"/>
<path d="M760 550 c-6 -36 -13 -77 -16 -92 -5 -27 -4 -28 39 -28 l44 0 7 63
c4 34 9 76 12 92 5 30 4 30 -35 30 l-40 0 -11 -65z"/>
<path d="M1033 838 c-60 -63 -78 -113 -78 -213 0 -77 4 -98 27 -146 54 -114
198 -206 405 -259 65 -16 135 -32 156 -35 21 -3 35 -10 32 -16 -4 -5 3 -9 14
-9 30 0 26 17 -6 25 -38 9 -128 47 -252 107 -87 42 -117 63 -181 127 -66 66
-79 84 -94 138 -25 82 -18 146 25 232 34 69 24 80 -17 17 -65 -99 -70 -201
-15 -308 18 -36 43 -77 57 -91 14 -15 21 -27 16 -27 -18 0 -101 99 -107 127
-4 15 -11 41 -16 57 -21 66 -1 166 47 236 51 74 43 97 -13 38z"/>
<path d="M1102 768 c-28 -73 -34 -104 -26 -144 8 -42 24 -45 24 -4 0 44 23 93
55 118 26 21 38 22 221 22 181 0 195 -1 214 -20 22 -22 23 -33 14 -104 l-7
-46 -102 0 -103 0 14 38 c20 56 19 58 -44 57 l-58 0 -33 -148 c-18 -82 -31
-149 -30 -151 28 -21 101 -67 104 -64 2 1 5 14 7 28 3 23 0 25 -32 25 -31 0
-35 3 -32 25 5 50 4 50 142 50 98 0 130 -3 129 -12 0 -20 -35 -171 -43 -190
-6 -14 3 -20 56 -36 35 -11 65 -16 66 -11 4 11 82 12 82 2 -1 -5 -14 -33 -30
-63 -36 -67 -37 -75 -5 -96 20 -13 29 -14 58 -3 26 9 42 9 67 0 18 -6 71 -11
118 -11 73 0 89 3 108 21 l22 21 31 -23 31 -23 28 21 27 20 28 -21 c40 -29
125 -29 164 0 26 20 28 26 28 90 0 60 3 72 24 89 19 17 30 51 61 195 54 252
52 234 29 259 -16 17 -31 21 -84 21 -68 0 -88 -11 -107 -59 l-10 -26 -12 26
c-22 53 -34 59 -106 59 -64 0 -70 -2 -94 -31 -14 -17 -26 -36 -26 -42 0 -6
-11 5 -25 24 -13 20 -31 39 -40 43 -9 3 -80 6 -158 6 -106 0 -149 -4 -171 -15
-36 -19 -36 -19 -36 10 0 14 -13 39 -29 57 l-29 33 -190 3 c-155 3 -197 0
-227 -13 -21 -8 -40 -14 -42 -12 -2 3 1 16 6 31 6 14 7 26 2 26 -5 0 -18 -24
-29 -52z m913 -115 c19 -18 18 -21 -20 -198 -13 -60 -27 -125 -30 -142 -4 -18
-18 -42 -32 -53 -23 -18 -41 -20 -174 -20 -197 0 -189 -11 -144 207 35 169 44
196 73 212 9 6 83 11 164 11 123 0 149 -3 163 -17z m249 0 c2 -10 10 -69 17
-130 13 -115 22 -139 32 -80 3 17 13 76 22 130 l17 97 74 0 c53 0 74 -4 74
-12 0 -7 -9 -47 -19 -89 -10 -41 -29 -132 -42 -202 l-24 -127 -75 0 -76 0 -12
93 c-7 50 -12 106 -12 124 0 17 -4 34 -9 37 -11 7 -14 -6 -37 -146 l-18 -108
-76 0 -77 0 18 83 c10 45 31 142 45 215 l27 132 73 0 c61 0 73 -3 78 -17z
m-890 -19 c3 -9 6 -24 6 -34 0 -31 32 -40 135 -40 l95 0 -6 -27 c-16 -64 -23
-74 -43 -63 -11 5 -74 10 -140 10 l-121 0 0 28 c0 25 15 101 25 130 6 17 42
15 49 -4z m626 -383 c0 -16 -7 -35 -16 -42 -9 -7 -20 -25 -26 -39 l-10 -25
-14 33 c-13 32 -12 34 19 67 40 42 47 43 47 6z m233 0 c3 -12 -1 -22 -11 -26
-21 -8 -24 -2 -16 29 7 28 19 27 27 -3z m-331 -111 l3 -45 45 0 45 0 -2 48
c-3 41 0 47 17 47 17 0 20 -7 20 -53 0 -29 -5 -58 -12 -65 -7 -7 -38 -12 -70
-12 -67 0 -78 12 -78 83 0 76 27 74 32 -3z m-69 -15 c31 -58 33 -65 16 -65
-11 0 -19 4 -19 9 0 15 -92 18 -97 4 -3 -7 -16 -13 -29 -13 l-24 0 23 38 c13
20 31 49 41 65 27 45 50 35 89 -38z m365 53 c-3 -7 -17 -14 -31 -16 -25 -3
-27 -7 -27 -53 0 -42 -3 -49 -20 -49 -17 0 -20 7 -20 53 0 51 -1 53 -27 52
-14 0 -28 6 -30 13 -4 9 16 12 77 12 61 0 81 -3 78 -12z m160 0 c7 -7 12 -30
12 -53 0 -23 -5 -46 -12 -53 -12 -12 -104 -17 -132 -6 -20 8 -23 110 -3 117
25 11 123 7 135 -5z"/>
<path d="M1829 613 l-36 -4 -13 -70 c-6 -39 -21 -105 -31 -147 -10 -43 -19
-82 -19 -88 0 -14 83 -10 88 5 2 6 16 70 31 143 15 73 30 139 32 147 5 16 -4
19 -52 14z m6 -61 c-1 -15 -5 -36 -8 -47 -4 -11 -9 -36 -12 -55 -8 -49 -25
-100 -34 -100 -8 0 32 200 43 219 11 17 14 13 11 -17z"/>
<path d="M1762 140 c-17 -28 -16 -30 17 -30 27 0 28 1 18 25 -14 30 -19 31
-35 5z"/>
<path d="M2242 128 c3 -32 4 -33 48 -33 43 0 45 1 45 30 0 29 -2 30 -48 33
l-48 3 3 -33z"/>
</g>
</svg>
